<?xml version="1.0" encoding="UTF-8" standalone="no"?>
<!DOCTYPE svg PUBLIC "-//W3C//DTD SVG 1.1//EN"
 "http://www.w3.org/Graphics/SVG/1.1/DTD/svg11.dtd">
<!-- Generated by graphviz version 5.0.0 (20220707.1540)
 -->
<!-- Title: dependencies Pages: 1 -->
<svg width="4169pt" height="174pt"
 viewBox="0.00 0.00 4169.00 173.80" xmlns="http://www.w3.org/2000/svg" xmlns:xlink="http://www.w3.org/1999/xlink">
<g id="graph0" class="graph" transform="scale(1 1) rotate(0) translate(4 169.8)">
<title>dependencies</title>
<polygon fill="white" stroke="transparent" points="-4,4 -4,-169.8 4165,-169.8 4165,4 -4,4"/>
<text text-anchor="middle" x="2080.5" y="-8.2" font-family="sans-serif" font-size="14.00">dependencies</text>
<g id="clust1" class="cluster">
<title>cluster_AdministratorModule</title>
<polygon fill="none" stroke="black" stroke-dasharray="1,5" points="8,-32.8 8,-157.8 4153,-157.8 4153,-32.8 8,-32.8"/>
</g>
<g id="clust2" class="cluster">
<title>cluster_AdministratorModule_declarations</title>
<polygon fill="none" stroke="black" points="341,-40.8 341,-92.8 4145,-92.8 4145,-40.8 341,-40.8"/>
</g>
<g id="clust23" class="cluster">
<title>cluster_AdministratorModule_imports</title>
<polygon fill="none" stroke="black" points="16,-40.8 16,-92.8 333,-92.8 333,-40.8 16,-40.8"/>
</g>
<!-- AdminBranchComponent -->
<g id="node1" class="node">
<title>AdminBranchComponent</title>
<polygon fill="#ffffb3" stroke="black" points="4137.15,-84.8 3976.85,-84.8 3976.85,-48.8 4137.15,-48.8 4137.15,-84.8"/>
<text text-anchor="middle" x="4057" y="-62.6" font-family="Times,serif" font-size="14.00">AdminBranchComponent</text>
</g>
<!-- AdministratorModule -->
<g id="node21" class="node">
<title>AdministratorModule</title>
<polygon fill="#8dd3c7" stroke="black" points="2193.1,-149.8 2190.1,-153.8 2169.1,-153.8 2166.1,-149.8 2054.9,-149.8 2054.9,-113.8 2193.1,-113.8 2193.1,-149.8"/>
<text text-anchor="middle" x="2124" y="-127.6" font-family="Times,serif" font-size="14.00">AdministratorModule</text>
</g>
<!-- AdminBranchComponent&#45;&gt;AdministratorModule -->
<g id="edge1" class="edge">
<title>AdminBranchComponent&#45;&gt;AdministratorModule</title>
<path fill="none" stroke="black" d="M4057,-84.95C4057,-108.56 4057,-146.8 4057,-146.8 4057,-146.8 2203.08,-146.8 2203.08,-146.8"/>
<polygon fill="black" stroke="black" points="2203.08,-143.3 2193.08,-146.8 2203.08,-150.3 2203.08,-143.3"/>
</g>
<!-- AdminDeviceComponent -->
<g id="node2" class="node">
<title>AdminDeviceComponent</title>
<polygon fill="#ffffb3" stroke="black" points="3958.86,-84.8 3799.14,-84.8 3799.14,-48.8 3958.86,-48.8 3958.86,-84.8"/>
<text text-anchor="middle" x="3879" y="-62.6" font-family="Times,serif" font-size="14.00">AdminDeviceComponent</text>
</g>
<!-- AdminDeviceComponent&#45;&gt;AdministratorModule -->
<g id="edge2" class="edge">
<title>AdminDeviceComponent&#45;&gt;AdministratorModule</title>
<path fill="none" stroke="black" d="M3879,-85.05C3879,-107.82 3879,-143.8 3879,-143.8 3879,-143.8 2203.07,-143.8 2203.07,-143.8"/>
<polygon fill="black" stroke="black" points="2203.07,-140.3 2193.07,-143.8 2203.07,-147.3 2203.07,-140.3"/>
</g>
<!-- AdminDutytitleComponent -->
<g id="node3" class="node">
<title>AdminDutytitleComponent</title>
<polygon fill="#ffffb3" stroke="black" points="3780.99,-84.8 3611.01,-84.8 3611.01,-48.8 3780.99,-48.8 3780.99,-84.8"/>
<text text-anchor="middle" x="3696" y="-62.6" font-family="Times,serif" font-size="14.00">AdminDutytitleComponent</text>
</g>
<!-- AdminDutytitleComponent&#45;&gt;AdministratorModule -->
<g id="edge3" class="edge">
<title>AdminDutytitleComponent&#45;&gt;AdministratorModule</title>
<path fill="none" stroke="black" d="M3696,-85.09C3696,-107.01 3696,-140.8 3696,-140.8 3696,-140.8 2203.07,-140.8 2203.07,-140.8"/>
<polygon fill="black" stroke="black" points="2203.07,-137.3 2193.07,-140.8 2203.07,-144.3 2203.07,-137.3"/>
</g>
<!-- AdminHomeComponent -->
<g id="node4" class="node">
<title>AdminHomeComponent</title>
<polygon fill="#ffffb3" stroke="black" points="3593.44,-84.8 3438.56,-84.8 3438.56,-48.8 3593.44,-48.8 3593.44,-84.8"/>
<text text-anchor="middle" x="3516" y="-62.6" font-family="Times,serif" font-size="14.00">AdminHomeComponent</text>
</g>
<!-- AdminHomeComponent&#45;&gt;AdministratorModule -->
<g id="edge4" class="edge">
<title>AdminHomeComponent&#45;&gt;AdministratorModule</title>
<path fill="none" stroke="black" d="M3516,-84.83C3516,-105.57 3516,-136.8 3516,-136.8 3516,-136.8 2203.51,-136.8 2203.51,-136.8"/>
<polygon fill="black" stroke="black" points="2203.51,-133.3 2193.51,-136.8 2203.51,-140.3 2203.51,-133.3"/>
</g>
<!-- AdminLocationComponent -->
<g id="node5" class="node">
<title>AdminLocationComponent</title>
<polygon fill="#ffffb3" stroke="black" points="3420.98,-84.8 3251.02,-84.8 3251.02,-48.8 3420.98,-48.8 3420.98,-84.8"/>
<text text-anchor="middle" x="3336" y="-62.6" font-family="Times,serif" font-size="14.00">AdminLocationComponent</text>
</g>
<!-- AdminLocationComponent&#45;&gt;AdministratorModule -->
<g id="edge5" class="edge">
<title>AdminLocationComponent&#45;&gt;AdministratorModule</title>
<path fill="none" stroke="black" d="M3336,-85.11C3336,-104.95 3336,-133.8 3336,-133.8 3336,-133.8 2203.07,-133.8 2203.07,-133.8"/>
<polygon fill="black" stroke="black" points="2203.07,-130.3 2193.07,-133.8 2203.07,-137.3 2203.07,-130.3"/>
</g>
<!-- AdminOperationComponent -->
<g id="node6" class="node">
<title>AdminOperationComponent</title>
<polygon fill="#ffffb3" stroke="black" points="3233.2,-84.8 3056.8,-84.8 3056.8,-48.8 3233.2,-48.8 3233.2,-84.8"/>
<text text-anchor="middle" x="3145" y="-62.6" font-family="Times,serif" font-size="14.00">AdminOperationComponent</text>
</g>
<!-- AdminOperationComponent&#45;&gt;AdministratorModule -->
<g id="edge6" class="edge">
<title>AdminOperationComponent&#45;&gt;AdministratorModule</title>
<path fill="none" stroke="black" d="M3145,-84.97C3145,-103.89 3145,-130.8 3145,-130.8 3145,-130.8 2203.37,-130.8 2203.37,-130.8"/>
<polygon fill="black" stroke="black" points="2203.37,-127.3 2193.37,-130.8 2203.37,-134.3 2203.37,-127.3"/>
</g>
<!-- AdminShellComponent -->
<g id="node7" class="node">
<title>AdminShellComponent</title>
<polygon fill="#ffffb3" stroke="black" points="3038.5,-84.8 2889.5,-84.8 2889.5,-48.8 3038.5,-48.8 3038.5,-84.8"/>
<text text-anchor="middle" x="2964" y="-62.6" font-family="Times,serif" font-size="14.00">AdminShellComponent</text>
</g>
<!-- AdminShellComponent&#45;&gt;AdministratorModule -->
<g id="edge7" class="edge">
<title>AdminShellComponent&#45;&gt;AdministratorModule</title>
<path fill="none" stroke="black" d="M2964,-85.1C2964,-103.07 2964,-127.8 2964,-127.8 2964,-127.8 2203.1,-127.8 2203.1,-127.8"/>
<polygon fill="black" stroke="black" points="2203.1,-124.3 2193.1,-127.8 2203.1,-131.3 2203.1,-124.3"/>
</g>
<!-- AdminUserComponent -->
<g id="node8" class="node">
<title>AdminUserComponent</title>
<polygon fill="#ffffb3" stroke="black" points="2871.16,-84.8 2724.84,-84.8 2724.84,-48.8 2871.16,-48.8 2871.16,-84.8"/>
<text text-anchor="middle" x="2798" y="-62.6" font-family="Times,serif" font-size="14.00">AdminUserComponent</text>
</g>
<!-- AdminUserComponent&#45;&gt;AdministratorModule -->
<g id="edge8" class="edge">
<title>AdminUserComponent&#45;&gt;AdministratorModule</title>
<path fill="none" stroke="black" d="M2798,-84.84C2798,-101.53 2798,-123.8 2798,-123.8 2798,-123.8 2203.28,-123.8 2203.28,-123.8"/>
<polygon fill="black" stroke="black" points="2203.28,-120.3 2193.28,-123.8 2203.28,-127.3 2203.28,-120.3"/>
</g>
<!-- FooterAdminComponent -->
<g id="node9" class="node">
<title>FooterAdminComponent</title>
<polygon fill="#ffffb3" stroke="black" points="2706.27,-84.8 2549.73,-84.8 2549.73,-48.8 2706.27,-48.8 2706.27,-84.8"/>
<text text-anchor="middle" x="2628" y="-62.6" font-family="Times,serif" font-size="14.00">FooterAdminComponent</text>
</g>
<!-- FooterAdminComponent&#45;&gt;AdministratorModule -->
<g id="edge9" class="edge">
<title>FooterAdminComponent&#45;&gt;AdministratorModule</title>
<path fill="none" stroke="black" d="M2628,-85.08C2628,-100.75 2628,-120.8 2628,-120.8 2628,-120.8 2203.29,-120.8 2203.29,-120.8"/>
<polygon fill="black" stroke="black" points="2203.29,-117.3 2193.29,-120.8 2203.29,-124.3 2203.29,-117.3"/>
</g>
<!-- FormAdminDeviceComponent -->
<g id="node10" class="node">
<title>FormAdminDeviceComponent</title>
<polygon fill="#ffffb3" stroke="black" points="2532.2,-84.8 2341.8,-84.8 2341.8,-48.8 2532.2,-48.8 2532.2,-84.8"/>
<text text-anchor="middle" x="2437" y="-62.6" font-family="Times,serif" font-size="14.00">FormAdminDeviceComponent</text>
</g>
<!-- FormAdminDeviceComponent&#45;&gt;AdministratorModule -->
<g id="edge10" class="edge">
<title>FormAdminDeviceComponent&#45;&gt;AdministratorModule</title>
<path fill="none" stroke="black" d="M2437,-84.92C2437,-99.58 2437,-117.8 2437,-117.8 2437,-117.8 2203.08,-117.8 2203.08,-117.8"/>
<polygon fill="black" stroke="black" points="2203.08,-114.3 2193.08,-117.8 2203.08,-121.3 2203.08,-114.3"/>
</g>
<!-- FormAdminUserComponent -->
<g id="node11" class="node">
<title>FormAdminUserComponent</title>
<polygon fill="#ffffb3" stroke="black" points="2323.49,-84.8 2146.51,-84.8 2146.51,-48.8 2323.49,-48.8 2323.49,-84.8"/>
<text text-anchor="middle" x="2235" y="-62.6" font-family="Times,serif" font-size="14.00">FormAdminUserComponent</text>
</g>
<!-- FormAdminUserComponent&#45;&gt;AdministratorModule -->
<g id="edge11" class="edge">
<title>FormAdminUserComponent&#45;&gt;AdministratorModule</title>
<path fill="none" stroke="black" d="M2169.78,-84.91C2169.78,-84.91 2169.78,-103.79 2169.78,-103.79"/>
<polygon fill="black" stroke="black" points="2166.28,-103.79 2169.78,-113.79 2173.28,-103.79 2166.28,-103.79"/>
</g>
<!-- FormDeviceConfigurationComponent -->
<g id="node12" class="node">
<title>FormDeviceConfigurationComponent</title>
<polygon fill="#ffffb3" stroke="black" points="2128.86,-84.8 1899.14,-84.8 1899.14,-48.8 2128.86,-48.8 2128.86,-84.8"/>
<text text-anchor="middle" x="2014" y="-62.6" font-family="Times,serif" font-size="14.00">FormDeviceConfigurationComponent</text>
</g>
<!-- FormDeviceConfigurationComponent&#45;&gt;AdministratorModule -->
<g id="edge12" class="edge">
<title>FormDeviceConfigurationComponent&#45;&gt;AdministratorModule</title>
<path fill="none" stroke="black" d="M2091.94,-84.91C2091.94,-84.91 2091.94,-103.79 2091.94,-103.79"/>
<polygon fill="black" stroke="black" points="2088.44,-103.79 2091.94,-113.79 2095.44,-103.79 2088.44,-103.79"/>
</g>
<!-- FormUpdateAdminUserComponent -->
<g id="node13" class="node">
<title>FormUpdateAdminUserComponent</title>
<polygon fill="#ffffb3" stroke="black" points="1880.92,-84.8 1663.08,-84.8 1663.08,-48.8 1880.92,-48.8 1880.92,-84.8"/>
<text text-anchor="middle" x="1772" y="-62.6" font-family="Times,serif" font-size="14.00">FormUpdateAdminUserComponent</text>
</g>
<!-- FormUpdateAdminUserComponent&#45;&gt;AdministratorModule -->
<g id="edge13" class="edge">
<title>FormUpdateAdminUserComponent&#45;&gt;AdministratorModule</title>
<path fill="none" stroke="black" d="M1772,-84.92C1772,-99.58 1772,-117.8 1772,-117.8 1772,-117.8 2044.88,-117.8 2044.88,-117.8"/>
<polygon fill="black" stroke="black" points="2044.88,-121.3 2054.88,-117.8 2044.88,-114.3 2044.88,-121.3"/>
</g>
<!-- HeaderAdminComponent -->
<g id="node14" class="node">
<title>HeaderAdminComponent</title>
<polygon fill="#ffffb3" stroke="black" points="1645.14,-84.8 1484.86,-84.8 1484.86,-48.8 1645.14,-48.8 1645.14,-84.8"/>
<text text-anchor="middle" x="1565" y="-62.6" font-family="Times,serif" font-size="14.00">HeaderAdminComponent</text>
</g>
<!-- HeaderAdminComponent&#45;&gt;AdministratorModule -->
<g id="edge14" class="edge">
<title>HeaderAdminComponent&#45;&gt;AdministratorModule</title>
<path fill="none" stroke="black" d="M1565,-85.08C1565,-100.75 1565,-120.8 1565,-120.8 1565,-120.8 2044.89,-120.8 2044.89,-120.8"/>
<polygon fill="black" stroke="black" points="2044.9,-124.3 2054.89,-120.8 2044.89,-117.3 2044.9,-124.3"/>
</g>
<!-- ItemAdminBranchComponent -->
<g id="node15" class="node">
<title>ItemAdminBranchComponent</title>
<polygon fill="#ffffb3" stroke="black" points="1467.3,-84.8 1280.7,-84.8 1280.7,-48.8 1467.3,-48.8 1467.3,-84.8"/>
<text text-anchor="middle" x="1374" y="-62.6" font-family="Times,serif" font-size="14.00">ItemAdminBranchComponent</text>
</g>
<!-- ItemAdminBranchComponent&#45;&gt;AdministratorModule -->
<g id="edge15" class="edge">
<title>ItemAdminBranchComponent&#45;&gt;AdministratorModule</title>
<path fill="none" stroke="black" d="M1374,-84.84C1374,-101.53 1374,-123.8 1374,-123.8 1374,-123.8 2044.79,-123.8 2044.79,-123.8"/>
<polygon fill="black" stroke="black" points="2044.79,-127.3 2054.79,-123.8 2044.79,-120.3 2044.79,-127.3"/>
</g>
<!-- ItemAdminDeviceComponent -->
<g id="node16" class="node">
<title>ItemAdminDeviceComponent</title>
<polygon fill="#ffffb3" stroke="black" points="1262.52,-84.8 1077.48,-84.8 1077.48,-48.8 1262.52,-48.8 1262.52,-84.8"/>
<text text-anchor="middle" x="1170" y="-62.6" font-family="Times,serif" font-size="14.00">ItemAdminDeviceComponent</text>
</g>
<!-- ItemAdminDeviceComponent&#45;&gt;AdministratorModule -->
<g id="edge16" class="edge">
<title>ItemAdminDeviceComponent&#45;&gt;AdministratorModule</title>
<path fill="none" stroke="black" d="M1170,-85.1C1170,-103.07 1170,-127.8 1170,-127.8 1170,-127.8 2044.62,-127.8 2044.62,-127.8"/>
<polygon fill="black" stroke="black" points="2044.62,-131.3 2054.62,-127.8 2044.62,-124.3 2044.62,-131.3"/>
</g>
<!-- ItemAdminDutytitleComponent -->
<g id="node17" class="node">
<title>ItemAdminDutytitleComponent</title>
<polygon fill="#ffffb3" stroke="black" points="1058.65,-84.8 863.35,-84.8 863.35,-48.8 1058.65,-48.8 1058.65,-84.8"/>
<text text-anchor="middle" x="961" y="-62.6" font-family="Times,serif" font-size="14.00">ItemAdminDutytitleComponent</text>
</g>
<!-- ItemAdminDutytitleComponent&#45;&gt;AdministratorModule -->
<g id="edge17" class="edge">
<title>ItemAdminDutytitleComponent&#45;&gt;AdministratorModule</title>
<path fill="none" stroke="black" d="M961,-84.97C961,-103.89 961,-130.8 961,-130.8 961,-130.8 2044.73,-130.8 2044.73,-130.8"/>
<polygon fill="black" stroke="black" points="2044.73,-134.3 2054.73,-130.8 2044.73,-127.3 2044.73,-134.3"/>
</g>
<!-- ItemAdminOperationComponent -->
<g id="node18" class="node">
<title>ItemAdminOperationComponent</title>
<polygon fill="#ffffb3" stroke="black" points="844.86,-84.8 643.14,-84.8 643.14,-48.8 844.86,-48.8 844.86,-84.8"/>
<text text-anchor="middle" x="744" y="-62.6" font-family="Times,serif" font-size="14.00">ItemAdminOperationComponent</text>
</g>
<!-- ItemAdminOperationComponent&#45;&gt;AdministratorModule -->
<g id="edge18" class="edge">
<title>ItemAdminOperationComponent&#45;&gt;AdministratorModule</title>
<path fill="none" stroke="black" d="M744,-85.11C744,-104.95 744,-133.8 744,-133.8 744,-133.8 2044.62,-133.8 2044.62,-133.8"/>
<polygon fill="black" stroke="black" points="2044.62,-137.3 2054.62,-133.8 2044.62,-130.3 2044.62,-137.3"/>
</g>
<!-- MainAdminComponent -->
<g id="node19" class="node">
<title>MainAdminComponent</title>
<polygon fill="#ffffb3" stroke="black" points="624.77,-84.8 475.23,-84.8 475.23,-48.8 624.77,-48.8 624.77,-84.8"/>
<text text-anchor="middle" x="550" y="-62.6" font-family="Times,serif" font-size="14.00">MainAdminComponent</text>
</g>
<!-- MainAdminComponent&#45;&gt;AdministratorModule -->
<g id="edge19" class="edge">
<title>MainAdminComponent&#45;&gt;AdministratorModule</title>
<path fill="none" stroke="black" d="M550,-84.83C550,-105.57 550,-136.8 550,-136.8 550,-136.8 2044.85,-136.8 2044.85,-136.8"/>
<polygon fill="black" stroke="black" points="2044.85,-140.3 2054.85,-136.8 2044.85,-133.3 2044.85,-140.3"/>
</g>
<!-- UserComponent -->
<g id="node20" class="node">
<title>UserComponent</title>
<polygon fill="#ffffb3" stroke="black" points="456.77,-84.8 349.23,-84.8 349.23,-48.8 456.77,-48.8 456.77,-84.8"/>
<text text-anchor="middle" x="403" y="-62.6" font-family="Times,serif" font-size="14.00">UserComponent</text>
</g>
<!-- UserComponent&#45;&gt;AdministratorModule -->
<g id="edge20" class="edge">
<title>UserComponent&#45;&gt;AdministratorModule</title>
<path fill="none" stroke="black" d="M403,-85.09C403,-107.01 403,-140.8 403,-140.8 403,-140.8 2044.94,-140.8 2044.94,-140.8"/>
<polygon fill="black" stroke="black" points="2044.94,-144.3 2054.94,-140.8 2044.94,-137.3 2044.94,-144.3"/>
</g>
<!-- AdministratorRoutingModule -->
<g id="node22" class="node">
<title>AdministratorRoutingModule</title>
<polygon fill="#8dd3c7" stroke="black" points="324.71,-84.8 321.71,-88.8 300.71,-88.8 297.71,-84.8 141.29,-84.8 141.29,-48.8 324.71,-48.8 324.71,-84.8"/>
<text text-anchor="middle" x="233" y="-62.6" font-family="Times,serif" font-size="14.00">AdministratorRoutingModule</text>
</g>
<!-- AdministratorRoutingModule&#45;&gt;AdministratorModule -->
<g id="edge21" class="edge">
<title>AdministratorRoutingModule&#45;&gt;AdministratorModule</title>
<path fill="none" stroke="black" d="M233,-85.05C233,-107.82 233,-143.8 233,-143.8 233,-143.8 2044.74,-143.8 2044.74,-143.8"/>
<polygon fill="black" stroke="black" points="2044.74,-147.3 2054.74,-143.8 2044.74,-140.3 2044.74,-147.3"/>
</g>
<!-- LayoutModule -->
<g id="node23" class="node">
<title>LayoutModule</title>
<polygon fill="#8dd3c7" stroke="black" points="123.71,-84.8 120.71,-88.8 99.71,-88.8 96.71,-84.8 24.29,-84.8 24.29,-48.8 123.71,-48.8 123.71,-84.8"/>
<text text-anchor="middle" x="74" y="-62.6" font-family="Times,serif" font-size="14.00">LayoutModule</text>
</g>
<!-- LayoutModule&#45;&gt;AdministratorModule -->
<g id="edge22" class="edge">
<title>LayoutModule&#45;&gt;AdministratorModule</title>
<path fill="none" stroke="black" d="M74,-84.95C74,-108.56 74,-146.8 74,-146.8 74,-146.8 2044.91,-146.8 2044.91,-146.8"/>
<polygon fill="black" stroke="black" points="2044.91,-150.3 2054.91,-146.8 2044.91,-143.3 2044.91,-150.3"/>
</g>
</g>
</svg>
