<?xml version="1.0" encoding="UTF-8" standalone="no"?>
<!DOCTYPE svg PUBLIC "-//W3C//DTD SVG 1.1//EN"
 "http://www.w3.org/Graphics/SVG/1.1/DTD/svg11.dtd">
<!-- Generated by graphviz version 5.0.0 (20220707.1540)
 -->
<!-- Title: dependencies Pages: 1 -->
<svg width="3534pt" height="174pt"
 viewBox="0.00 0.00 3534.00 173.80" xmlns="http://www.w3.org/2000/svg" xmlns:xlink="http://www.w3.org/1999/xlink">
<g id="graph0" class="graph" transform="scale(1 1) rotate(0) translate(4 169.8)">
<title>dependencies</title>
<polygon fill="white" stroke="transparent" points="-4,4 -4,-169.8 3530,-169.8 3530,4 -4,4"/>
<text text-anchor="middle" x="1763" y="-8.2" font-family="sans-serif" font-size="14.00">dependencies</text>
<g id="clust1" class="cluster">
<title>cluster_SearchModule</title>
<polygon fill="none" stroke="black" stroke-dasharray="1,5" points="8,-32.8 8,-157.8 3518,-157.8 3518,-32.8 8,-32.8"/>
</g>
<g id="clust2" class="cluster">
<title>cluster_SearchModule_declarations</title>
<polygon fill="none" stroke="black" points="182,-40.8 182,-92.8 3510,-92.8 3510,-40.8 182,-40.8"/>
</g>
<g id="clust23" class="cluster">
<title>cluster_SearchModule_imports</title>
<polygon fill="none" stroke="black" points="16,-40.8 16,-92.8 174,-92.8 174,-40.8 16,-40.8"/>
</g>
<!-- BranchComponent -->
<g id="node1" class="node">
<title>BranchComponent</title>
<polygon fill="#ffffb3" stroke="black" points="3501.76,-84.8 3380.24,-84.8 3380.24,-48.8 3501.76,-48.8 3501.76,-84.8"/>
<text text-anchor="middle" x="3441" y="-62.6" font-family="Times,serif" font-size="14.00">BranchComponent</text>
</g>
<!-- SearchModule -->
<g id="node21" class="node">
<title>SearchModule</title>
<polygon fill="#8dd3c7" stroke="black" points="1877.64,-149.8 1874.64,-153.8 1853.64,-153.8 1850.64,-149.8 1780.36,-149.8 1780.36,-113.8 1877.64,-113.8 1877.64,-149.8"/>
<text text-anchor="middle" x="1829" y="-127.6" font-family="Times,serif" font-size="14.00">SearchModule</text>
</g>
<!-- BranchComponent&#45;&gt;SearchModule -->
<g id="edge1" class="edge">
<title>BranchComponent&#45;&gt;SearchModule</title>
<path fill="none" stroke="black" d="M3441,-84.95C3441,-108.56 3441,-146.8 3441,-146.8 3441,-146.8 1887.68,-146.8 1887.68,-146.8"/>
<polygon fill="black" stroke="black" points="1887.68,-143.3 1877.68,-146.8 1887.68,-150.3 1887.68,-143.3"/>
</g>
<!-- DeviceComponent -->
<g id="node2" class="node">
<title>DeviceComponent</title>
<polygon fill="#ffffb3" stroke="black" points="3362.47,-84.8 3241.53,-84.8 3241.53,-48.8 3362.47,-48.8 3362.47,-84.8"/>
<text text-anchor="middle" x="3302" y="-62.6" font-family="Times,serif" font-size="14.00">DeviceComponent</text>
</g>
<!-- DeviceComponent&#45;&gt;SearchModule -->
<g id="edge2" class="edge">
<title>DeviceComponent&#45;&gt;SearchModule</title>
<path fill="none" stroke="black" d="M3302,-85.05C3302,-107.82 3302,-143.8 3302,-143.8 3302,-143.8 1888.01,-143.8 1888.01,-143.8"/>
<polygon fill="black" stroke="black" points="1888.01,-140.3 1878.01,-143.8 1888.01,-147.3 1888.01,-140.3"/>
</g>
<!-- DeviceConfigComponent -->
<g id="node3" class="node">
<title>DeviceConfigComponent</title>
<polygon fill="#ffffb3" stroke="black" points="3223.86,-84.8 3064.14,-84.8 3064.14,-48.8 3223.86,-48.8 3223.86,-84.8"/>
<text text-anchor="middle" x="3144" y="-62.6" font-family="Times,serif" font-size="14.00">DeviceConfigComponent</text>
</g>
<!-- DeviceConfigComponent&#45;&gt;SearchModule -->
<g id="edge3" class="edge">
<title>DeviceConfigComponent&#45;&gt;SearchModule</title>
<path fill="none" stroke="black" d="M3144,-85.09C3144,-107.01 3144,-140.8 3144,-140.8 3144,-140.8 1887.75,-140.8 1887.75,-140.8"/>
<polygon fill="black" stroke="black" points="1887.75,-137.3 1877.75,-140.8 1887.75,-144.3 1887.75,-137.3"/>
</g>
<!-- DivisionComponent -->
<g id="node4" class="node">
<title>DivisionComponent</title>
<polygon fill="#ffffb3" stroke="black" points="3045.56,-84.8 2916.44,-84.8 2916.44,-48.8 3045.56,-48.8 3045.56,-84.8"/>
<text text-anchor="middle" x="2981" y="-62.6" font-family="Times,serif" font-size="14.00">DivisionComponent</text>
</g>
<!-- DivisionComponent&#45;&gt;SearchModule -->
<g id="edge4" class="edge">
<title>DivisionComponent&#45;&gt;SearchModule</title>
<path fill="none" stroke="black" d="M2981,-84.83C2981,-105.57 2981,-136.8 2981,-136.8 2981,-136.8 1887.76,-136.8 1887.76,-136.8"/>
<polygon fill="black" stroke="black" points="1887.76,-133.3 1877.76,-136.8 1887.76,-140.3 1887.76,-133.3"/>
</g>
<!-- DutytitleComponent -->
<g id="node5" class="node">
<title>DutytitleComponent</title>
<polygon fill="#ffffb3" stroke="black" points="2898.6,-84.8 2767.4,-84.8 2767.4,-48.8 2898.6,-48.8 2898.6,-84.8"/>
<text text-anchor="middle" x="2833" y="-62.6" font-family="Times,serif" font-size="14.00">DutytitleComponent</text>
</g>
<!-- DutytitleComponent&#45;&gt;SearchModule -->
<g id="edge5" class="edge">
<title>DutytitleComponent&#45;&gt;SearchModule</title>
<path fill="none" stroke="black" d="M2833,-85.11C2833,-104.95 2833,-133.8 2833,-133.8 2833,-133.8 1887.76,-133.8 1887.76,-133.8"/>
<polygon fill="black" stroke="black" points="1887.76,-130.3 1877.76,-133.8 1887.76,-137.3 1887.76,-130.3"/>
</g>
<!-- FooterSearchComponent -->
<g id="node6" class="node">
<title>FooterSearchComponent</title>
<polygon fill="#ffffb3" stroke="black" points="2748.97,-84.8 2593.03,-84.8 2593.03,-48.8 2748.97,-48.8 2748.97,-84.8"/>
<text text-anchor="middle" x="2671" y="-62.6" font-family="Times,serif" font-size="14.00">FooterSearchComponent</text>
</g>
<!-- FooterSearchComponent&#45;&gt;SearchModule -->
<g id="edge6" class="edge">
<title>FooterSearchComponent&#45;&gt;SearchModule</title>
<path fill="none" stroke="black" d="M2671,-84.97C2671,-103.89 2671,-130.8 2671,-130.8 2671,-130.8 1887.91,-130.8 1887.91,-130.8"/>
<polygon fill="black" stroke="black" points="1887.91,-127.3 1877.91,-130.8 1887.91,-134.3 1887.91,-127.3"/>
</g>
<!-- HeaderSearchComponent -->
<g id="node7" class="node">
<title>HeaderSearchComponent</title>
<polygon fill="#ffffb3" stroke="black" points="2574.84,-84.8 2415.16,-84.8 2415.16,-48.8 2574.84,-48.8 2574.84,-84.8"/>
<text text-anchor="middle" x="2495" y="-62.6" font-family="Times,serif" font-size="14.00">HeaderSearchComponent</text>
</g>
<!-- HeaderSearchComponent&#45;&gt;SearchModule -->
<g id="edge7" class="edge">
<title>HeaderSearchComponent&#45;&gt;SearchModule</title>
<path fill="none" stroke="black" d="M2495,-85.1C2495,-103.07 2495,-127.8 2495,-127.8 2495,-127.8 1887.7,-127.8 1887.7,-127.8"/>
<polygon fill="black" stroke="black" points="1887.7,-124.3 1877.7,-127.8 1887.7,-131.3 1887.7,-124.3"/>
</g>
<!-- ListBranchComponent -->
<g id="node8" class="node">
<title>ListBranchComponent</title>
<polygon fill="#ffffb3" stroke="black" points="2396.54,-84.8 2253.46,-84.8 2253.46,-48.8 2396.54,-48.8 2396.54,-84.8"/>
<text text-anchor="middle" x="2325" y="-62.6" font-family="Times,serif" font-size="14.00">ListBranchComponent</text>
</g>
<!-- ListBranchComponent&#45;&gt;SearchModule -->
<g id="edge8" class="edge">
<title>ListBranchComponent&#45;&gt;SearchModule</title>
<path fill="none" stroke="black" d="M2325,-84.84C2325,-101.53 2325,-123.8 2325,-123.8 2325,-123.8 1887.92,-123.8 1887.92,-123.8"/>
<polygon fill="black" stroke="black" points="1887.92,-120.3 1877.92,-123.8 1887.92,-127.3 1887.92,-120.3"/>
</g>
<!-- ListDeviceComponent -->
<g id="node9" class="node">
<title>ListDeviceComponent</title>
<polygon fill="#ffffb3" stroke="black" points="2235.25,-84.8 2092.75,-84.8 2092.75,-48.8 2235.25,-48.8 2235.25,-84.8"/>
<text text-anchor="middle" x="2164" y="-62.6" font-family="Times,serif" font-size="14.00">ListDeviceComponent</text>
</g>
<!-- ListDeviceComponent&#45;&gt;SearchModule -->
<g id="edge9" class="edge">
<title>ListDeviceComponent&#45;&gt;SearchModule</title>
<path fill="none" stroke="black" d="M2164,-85.08C2164,-100.75 2164,-120.8 2164,-120.8 2164,-120.8 1887.71,-120.8 1887.71,-120.8"/>
<polygon fill="black" stroke="black" points="1887.71,-117.3 1877.71,-120.8 1887.71,-124.3 1887.71,-117.3"/>
</g>
<!-- ListDivisionComponent -->
<g id="node10" class="node">
<title>ListDivisionComponent</title>
<polygon fill="#ffffb3" stroke="black" points="2074.84,-84.8 1923.16,-84.8 1923.16,-48.8 2074.84,-48.8 2074.84,-84.8"/>
<text text-anchor="middle" x="1999" y="-62.6" font-family="Times,serif" font-size="14.00">ListDivisionComponent</text>
</g>
<!-- ListDivisionComponent&#45;&gt;SearchModule -->
<g id="edge10" class="edge">
<title>ListDivisionComponent&#45;&gt;SearchModule</title>
<path fill="none" stroke="black" d="M1999,-84.92C1999,-99.58 1999,-117.8 1999,-117.8 1999,-117.8 1887.72,-117.8 1887.72,-117.8"/>
<polygon fill="black" stroke="black" points="1887.72,-114.3 1877.72,-117.8 1887.72,-121.3 1887.72,-114.3"/>
</g>
<!-- ListDutytitleComponent -->
<g id="node11" class="node">
<title>ListDutytitleComponent</title>
<polygon fill="#ffffb3" stroke="black" points="1905.38,-84.8 1752.62,-84.8 1752.62,-48.8 1905.38,-48.8 1905.38,-84.8"/>
<text text-anchor="middle" x="1829" y="-62.6" font-family="Times,serif" font-size="14.00">ListDutytitleComponent</text>
</g>
<!-- ListDutytitleComponent&#45;&gt;SearchModule -->
<g id="edge11" class="edge">
<title>ListDutytitleComponent&#45;&gt;SearchModule</title>
<path fill="none" stroke="black" d="M1829,-84.91C1829,-84.91 1829,-103.79 1829,-103.79"/>
<polygon fill="black" stroke="black" points="1825.5,-103.79 1829,-113.79 1832.5,-103.79 1825.5,-103.79"/>
</g>
<!-- MainSearchComponent -->
<g id="node12" class="node">
<title>MainSearchComponent</title>
<polygon fill="#ffffb3" stroke="black" points="1734.47,-84.8 1585.53,-84.8 1585.53,-48.8 1734.47,-48.8 1734.47,-84.8"/>
<text text-anchor="middle" x="1660" y="-62.6" font-family="Times,serif" font-size="14.00">MainSearchComponent</text>
</g>
<!-- MainSearchComponent&#45;&gt;SearchModule -->
<g id="edge12" class="edge">
<title>MainSearchComponent&#45;&gt;SearchModule</title>
<path fill="none" stroke="black" d="M1660,-84.92C1660,-99.58 1660,-117.8 1660,-117.8 1660,-117.8 1770.12,-117.8 1770.12,-117.8"/>
<polygon fill="black" stroke="black" points="1770.12,-121.3 1780.12,-117.8 1770.12,-114.3 1770.12,-121.3"/>
</g>
<!-- ReportComponent -->
<g id="node13" class="node">
<title>ReportComponent</title>
<polygon fill="#ffffb3" stroke="black" points="1567.94,-84.8 1448.06,-84.8 1448.06,-48.8 1567.94,-48.8 1567.94,-84.8"/>
<text text-anchor="middle" x="1508" y="-62.6" font-family="Times,serif" font-size="14.00">ReportComponent</text>
</g>
<!-- ReportComponent&#45;&gt;SearchModule -->
<g id="edge13" class="edge">
<title>ReportComponent&#45;&gt;SearchModule</title>
<path fill="none" stroke="black" d="M1508,-85.08C1508,-100.75 1508,-120.8 1508,-120.8 1508,-120.8 1770.25,-120.8 1770.25,-120.8"/>
<polygon fill="black" stroke="black" points="1770.25,-124.3 1780.25,-120.8 1770.25,-117.3 1770.25,-124.3"/>
</g>
<!-- SearchBranchComponent -->
<g id="node14" class="node">
<title>SearchBranchComponent</title>
<polygon fill="#ffffb3" stroke="black" points="1429.85,-84.8 1270.15,-84.8 1270.15,-48.8 1429.85,-48.8 1429.85,-84.8"/>
<text text-anchor="middle" x="1350" y="-62.6" font-family="Times,serif" font-size="14.00">SearchBranchComponent</text>
</g>
<!-- SearchBranchComponent&#45;&gt;SearchModule -->
<g id="edge14" class="edge">
<title>SearchBranchComponent&#45;&gt;SearchModule</title>
<path fill="none" stroke="black" d="M1350,-84.84C1350,-101.53 1350,-123.8 1350,-123.8 1350,-123.8 1769.99,-123.8 1769.99,-123.8"/>
<polygon fill="black" stroke="black" points="1769.99,-127.3 1779.99,-123.8 1769.99,-120.3 1769.99,-127.3"/>
</g>
<!-- SearchDeviceComponent -->
<g id="node15" class="node">
<title>SearchDeviceComponent</title>
<polygon fill="#ffffb3" stroke="black" points="1252.56,-84.8 1093.44,-84.8 1093.44,-48.8 1252.56,-48.8 1252.56,-84.8"/>
<text text-anchor="middle" x="1173" y="-62.6" font-family="Times,serif" font-size="14.00">SearchDeviceComponent</text>
</g>
<!-- SearchDeviceComponent&#45;&gt;SearchModule -->
<g id="edge15" class="edge">
<title>SearchDeviceComponent&#45;&gt;SearchModule</title>
<path fill="none" stroke="black" d="M1173,-85.1C1173,-103.07 1173,-127.8 1173,-127.8 1173,-127.8 1770.23,-127.8 1770.23,-127.8"/>
<polygon fill="black" stroke="black" points="1770.23,-131.3 1780.23,-127.8 1770.23,-124.3 1770.23,-131.3"/>
</g>
<!-- SearchDivisionComponent -->
<g id="node16" class="node">
<title>SearchDivisionComponent</title>
<polygon fill="#ffffb3" stroke="black" points="1075.65,-84.8 908.35,-84.8 908.35,-48.8 1075.65,-48.8 1075.65,-84.8"/>
<text text-anchor="middle" x="992" y="-62.6" font-family="Times,serif" font-size="14.00">SearchDivisionComponent</text>
</g>
<!-- SearchDivisionComponent&#45;&gt;SearchModule -->
<g id="edge16" class="edge">
<title>SearchDivisionComponent&#45;&gt;SearchModule</title>
<path fill="none" stroke="black" d="M992,-84.97C992,-103.89 992,-130.8 992,-130.8 992,-130.8 1770.07,-130.8 1770.07,-130.8"/>
<polygon fill="black" stroke="black" points="1770.07,-134.3 1780.07,-130.8 1770.07,-127.3 1770.07,-134.3"/>
</g>
<!-- SearchDutytitleComponent -->
<g id="node17" class="node">
<title>SearchDutytitleComponent</title>
<polygon fill="#ffffb3" stroke="black" points="890.69,-84.8 721.31,-84.8 721.31,-48.8 890.69,-48.8 890.69,-84.8"/>
<text text-anchor="middle" x="806" y="-62.6" font-family="Times,serif" font-size="14.00">SearchDutytitleComponent</text>
</g>
<!-- SearchDutytitleComponent&#45;&gt;SearchModule -->
<g id="edge17" class="edge">
<title>SearchDutytitleComponent&#45;&gt;SearchModule</title>
<path fill="none" stroke="black" d="M806,-85.11C806,-104.95 806,-133.8 806,-133.8 806,-133.8 1770.35,-133.8 1770.35,-133.8"/>
<polygon fill="black" stroke="black" points="1770.35,-137.3 1780.35,-133.8 1770.35,-130.3 1770.35,-137.3"/>
</g>
<!-- SearchHomeComponent -->
<g id="node18" class="node">
<title>SearchHomeComponent</title>
<polygon fill="#ffffb3" stroke="black" points="703.64,-84.8 550.36,-84.8 550.36,-48.8 703.64,-48.8 703.64,-84.8"/>
<text text-anchor="middle" x="627" y="-62.6" font-family="Times,serif" font-size="14.00">SearchHomeComponent</text>
</g>
<!-- SearchHomeComponent&#45;&gt;SearchModule -->
<g id="edge18" class="edge">
<title>SearchHomeComponent&#45;&gt;SearchModule</title>
<path fill="none" stroke="black" d="M627,-84.83C627,-105.57 627,-136.8 627,-136.8 627,-136.8 1770.02,-136.8 1770.02,-136.8"/>
<polygon fill="black" stroke="black" points="1770.02,-140.3 1780.02,-136.8 1770.02,-133.3 1770.02,-140.3"/>
</g>
<!-- SearchOperationComponent -->
<g id="node19" class="node">
<title>SearchOperationComponent</title>
<polygon fill="#ffffb3" stroke="black" points="531.9,-84.8 356.1,-84.8 356.1,-48.8 531.9,-48.8 531.9,-84.8"/>
<text text-anchor="middle" x="444" y="-62.6" font-family="Times,serif" font-size="14.00">SearchOperationComponent</text>
</g>
<!-- SearchOperationComponent&#45;&gt;SearchModule -->
<g id="edge19" class="edge">
<title>SearchOperationComponent&#45;&gt;SearchModule</title>
<path fill="none" stroke="black" d="M444,-85.09C444,-107.01 444,-140.8 444,-140.8 444,-140.8 1770.11,-140.8 1770.11,-140.8"/>
<polygon fill="black" stroke="black" points="1770.11,-144.3 1780.11,-140.8 1770.11,-137.3 1770.11,-144.3"/>
</g>
<!-- SearchShellComponent -->
<g id="node20" class="node">
<title>SearchShellComponent</title>
<polygon fill="#ffffb3" stroke="black" points="338.2,-84.8 189.8,-84.8 189.8,-48.8 338.2,-48.8 338.2,-84.8"/>
<text text-anchor="middle" x="264" y="-62.6" font-family="Times,serif" font-size="14.00">SearchShellComponent</text>
</g>
<!-- SearchShellComponent&#45;&gt;SearchModule -->
<g id="edge20" class="edge">
<title>SearchShellComponent&#45;&gt;SearchModule</title>
<path fill="none" stroke="black" d="M264,-85.05C264,-107.82 264,-143.8 264,-143.8 264,-143.8 1770.01,-143.8 1770.01,-143.8"/>
<polygon fill="black" stroke="black" points="1770.01,-147.3 1780.01,-143.8 1770.01,-140.3 1770.01,-147.3"/>
</g>
<!-- SearchRoutingModule -->
<g id="node22" class="node">
<title>SearchRoutingModule</title>
<polygon fill="#8dd3c7" stroke="black" points="166.26,-84.8 163.26,-88.8 142.26,-88.8 139.26,-84.8 23.74,-84.8 23.74,-48.8 166.26,-48.8 166.26,-84.8"/>
<text text-anchor="middle" x="95" y="-62.6" font-family="Times,serif" font-size="14.00">SearchRoutingModule</text>
</g>
<!-- SearchRoutingModule&#45;&gt;SearchModule -->
<g id="edge21" class="edge">
<title>SearchRoutingModule&#45;&gt;SearchModule</title>
<path fill="none" stroke="black" d="M95,-84.95C95,-108.56 95,-146.8 95,-146.8 95,-146.8 1770.36,-146.8 1770.36,-146.8"/>
<polygon fill="black" stroke="black" points="1770.36,-150.3 1780.36,-146.8 1770.36,-143.3 1770.36,-150.3"/>
</g>
</g>
</svg>
