<?xml version="1.0" encoding="UTF-8" standalone="no"?>
<!DOCTYPE svg PUBLIC "-//W3C//DTD SVG 1.1//EN"
 "http://www.w3.org/Graphics/SVG/1.1/DTD/svg11.dtd">
<!-- Generated by graphviz version 5.0.0 (20220707.1540)
 -->
<!-- Title: dependencies Pages: 1 -->
<svg width="950pt" height="174pt"
 viewBox="0.00 0.00 950.00 173.80" xmlns="http://www.w3.org/2000/svg" xmlns:xlink="http://www.w3.org/1999/xlink">
<g id="graph0" class="graph" transform="scale(1 1) rotate(0) translate(4 169.8)">
<title>dependencies</title>
<polygon fill="white" stroke="transparent" points="-4,4 -4,-169.8 946,-169.8 946,4 -4,4"/>
<text text-anchor="middle" x="471" y="-8.2" font-family="sans-serif" font-size="14.00">dependencies</text>
<g id="clust1" class="cluster">
<title>cluster_PrincipalModule</title>
<polygon fill="none" stroke="black" stroke-dasharray="1,5" points="8,-32.8 8,-157.8 934,-157.8 934,-32.8 8,-32.8"/>
</g>
<g id="clust2" class="cluster">
<title>cluster_PrincipalModule_declarations</title>
<polygon fill="none" stroke="black" points="196,-40.8 196,-92.8 926,-92.8 926,-40.8 196,-40.8"/>
</g>
<g id="clust7" class="cluster">
<title>cluster_PrincipalModule_imports</title>
<polygon fill="none" stroke="black" points="16,-40.8 16,-92.8 188,-92.8 188,-40.8 16,-40.8"/>
</g>
<!-- HeaderPrincipalComponent -->
<g id="node1" class="node">
<title>HeaderPrincipalComponent</title>
<polygon fill="#ffffb3" stroke="black" points="918.29,-84.8 745.71,-84.8 745.71,-48.8 918.29,-48.8 918.29,-84.8"/>
<text text-anchor="middle" x="832" y="-62.6" font-family="Times,serif" font-size="14.00">HeaderPrincipalComponent</text>
</g>
<!-- PrincipalModule -->
<g id="node5" class="node">
<title>PrincipalModule</title>
<polygon fill="#8dd3c7" stroke="black" points="518.1,-149.8 515.1,-153.8 494.1,-153.8 491.1,-149.8 407.9,-149.8 407.9,-113.8 518.1,-113.8 518.1,-149.8"/>
<text text-anchor="middle" x="463" y="-127.6" font-family="Times,serif" font-size="14.00">PrincipalModule</text>
</g>
<!-- HeaderPrincipalComponent&#45;&gt;PrincipalModule -->
<g id="edge1" class="edge">
<title>HeaderPrincipalComponent&#45;&gt;PrincipalModule</title>
<path fill="none" stroke="black" d="M832,-85.08C832,-106.12 832,-137.8 832,-137.8 832,-137.8 528.24,-137.8 528.24,-137.8"/>
<polygon fill="black" stroke="black" points="528.24,-134.3 518.24,-137.8 528.24,-141.3 528.24,-134.3"/>
</g>
<!-- HomePrincipalComponent -->
<g id="node2" class="node">
<title>HomePrincipalComponent</title>
<polygon fill="#ffffb3" stroke="black" points="728.09,-84.8 561.91,-84.8 561.91,-48.8 728.09,-48.8 728.09,-84.8"/>
<text text-anchor="middle" x="645" y="-62.6" font-family="Times,serif" font-size="14.00">HomePrincipalComponent</text>
</g>
<!-- HomePrincipalComponent&#45;&gt;PrincipalModule -->
<g id="edge2" class="edge">
<title>HomePrincipalComponent&#45;&gt;PrincipalModule</title>
<path fill="none" stroke="black" d="M645,-84.82C645,-102.17 645,-125.8 645,-125.8 645,-125.8 528.1,-125.8 528.1,-125.8"/>
<polygon fill="black" stroke="black" points="528.1,-122.3 518.1,-125.8 528.1,-129.3 528.1,-122.3"/>
</g>
<!-- MainPrincipalComponent -->
<g id="node3" class="node">
<title>MainPrincipalComponent</title>
<polygon fill="#ffffb3" stroke="black" points="543.93,-84.8 382.07,-84.8 382.07,-48.8 543.93,-48.8 543.93,-84.8"/>
<text text-anchor="middle" x="463" y="-62.6" font-family="Times,serif" font-size="14.00">MainPrincipalComponent</text>
</g>
<!-- MainPrincipalComponent&#45;&gt;PrincipalModule -->
<g id="edge3" class="edge">
<title>MainPrincipalComponent&#45;&gt;PrincipalModule</title>
<path fill="none" stroke="black" d="M463,-84.91C463,-84.91 463,-103.79 463,-103.79"/>
<polygon fill="black" stroke="black" points="459.5,-103.79 463,-113.79 466.5,-103.79 459.5,-103.79"/>
</g>
<!-- ShellPrincipalComponent -->
<g id="node4" class="node">
<title>ShellPrincipalComponent</title>
<polygon fill="#ffffb3" stroke="black" points="364.16,-84.8 203.84,-84.8 203.84,-48.8 364.16,-48.8 364.16,-84.8"/>
<text text-anchor="middle" x="284" y="-62.6" font-family="Times,serif" font-size="14.00">ShellPrincipalComponent</text>
</g>
<!-- ShellPrincipalComponent&#45;&gt;PrincipalModule -->
<g id="edge4" class="edge">
<title>ShellPrincipalComponent&#45;&gt;PrincipalModule</title>
<path fill="none" stroke="black" d="M284,-84.82C284,-102.17 284,-125.8 284,-125.8 284,-125.8 397.83,-125.8 397.83,-125.8"/>
<polygon fill="black" stroke="black" points="397.83,-129.3 407.83,-125.8 397.83,-122.3 397.83,-129.3"/>
</g>
<!-- PrincipalRoutingModule -->
<g id="node6" class="node">
<title>PrincipalRoutingModule</title>
<polygon fill="#8dd3c7" stroke="black" points="179.71,-84.8 176.71,-88.8 155.71,-88.8 152.71,-84.8 24.29,-84.8 24.29,-48.8 179.71,-48.8 179.71,-84.8"/>
<text text-anchor="middle" x="102" y="-62.6" font-family="Times,serif" font-size="14.00">PrincipalRoutingModule</text>
</g>
<!-- PrincipalRoutingModule&#45;&gt;PrincipalModule -->
<g id="edge5" class="edge">
<title>PrincipalRoutingModule&#45;&gt;PrincipalModule</title>
<path fill="none" stroke="black" d="M102,-85.08C102,-106.12 102,-137.8 102,-137.8 102,-137.8 397.78,-137.8 397.78,-137.8"/>
<polygon fill="black" stroke="black" points="397.78,-141.3 407.78,-137.8 397.78,-134.3 397.78,-141.3"/>
</g>
</g>
</svg>
