<?xml version="1.0" encoding="UTF-8" standalone="no"?>
<!DOCTYPE svg PUBLIC "-//W3C//DTD SVG 1.1//EN"
 "http://www.w3.org/Graphics/SVG/1.1/DTD/svg11.dtd">
<!-- Generated by graphviz version 5.0.0 (20220707.1540)
 -->
<!-- Title: dependencies Pages: 1 -->
<svg width="386pt" height="174pt"
 viewBox="0.00 0.00 386.00 173.80" xmlns="http://www.w3.org/2000/svg" xmlns:xlink="http://www.w3.org/1999/xlink">
<g id="graph0" class="graph" transform="scale(1 1) rotate(0) translate(4 169.8)">
<title>dependencies</title>
<polygon fill="white" stroke="transparent" points="-4,4 -4,-169.8 382,-169.8 382,4 -4,4"/>
<text text-anchor="middle" x="189" y="-8.2" font-family="sans-serif" font-size="14.00">dependencies</text>
<g id="clust1" class="cluster">
<title>cluster_LayoutModule</title>
<polygon fill="none" stroke="black" stroke-dasharray="1,5" points="8,-32.8 8,-157.8 370,-157.8 370,-32.8 8,-32.8"/>
</g>
<g id="clust2" class="cluster">
<title>cluster_LayoutModule_declarations</title>
<polygon fill="none" stroke="black" points="184,-40.8 184,-92.8 362,-92.8 362,-40.8 184,-40.8"/>
</g>
<g id="clust4" class="cluster">
<title>cluster_LayoutModule_imports</title>
<polygon fill="none" stroke="black" points="16,-40.8 16,-92.8 176,-92.8 176,-40.8 16,-40.8"/>
</g>
<!-- ViewerLayoutComponent -->
<g id="node1" class="node">
<title>ViewerLayoutComponent</title>
<polygon fill="#ffffb3" stroke="black" points="354.19,-84.8 191.81,-84.8 191.81,-48.8 354.19,-48.8 354.19,-84.8"/>
<text text-anchor="middle" x="273" y="-62.6" font-family="Times,serif" font-size="14.00">ViewerLayoutComponent</text>
</g>
<!-- LayoutModule -->
<g id="node2" class="node">
<title>LayoutModule</title>
<polygon fill="#8dd3c7" stroke="black" points="233.71,-149.8 230.71,-153.8 209.71,-153.8 206.71,-149.8 134.29,-149.8 134.29,-113.8 233.71,-113.8 233.71,-149.8"/>
<text text-anchor="middle" x="184" y="-127.6" font-family="Times,serif" font-size="14.00">LayoutModule</text>
</g>
<!-- ViewerLayoutComponent&#45;&gt;LayoutModule -->
<g id="edge1" class="edge">
<title>ViewerLayoutComponent&#45;&gt;LayoutModule</title>
<path fill="none" stroke="black" d="M212.76,-84.91C212.76,-84.91 212.76,-103.79 212.76,-103.79"/>
<polygon fill="black" stroke="black" points="209.26,-103.79 212.76,-113.79 216.26,-103.79 209.26,-103.79"/>
</g>
<!-- LayoutRoutingModule -->
<g id="node3" class="node">
<title>LayoutRoutingModule</title>
<polygon fill="#8dd3c7" stroke="black" points="168.32,-84.8 165.32,-88.8 144.32,-88.8 141.32,-84.8 23.68,-84.8 23.68,-48.8 168.32,-48.8 168.32,-84.8"/>
<text text-anchor="middle" x="96" y="-62.6" font-family="Times,serif" font-size="14.00">LayoutRoutingModule</text>
</g>
<!-- LayoutRoutingModule&#45;&gt;LayoutModule -->
<g id="edge2" class="edge">
<title>LayoutRoutingModule&#45;&gt;LayoutModule</title>
<path fill="none" stroke="black" d="M151.28,-84.91C151.28,-84.91 151.28,-103.79 151.28,-103.79"/>
<polygon fill="black" stroke="black" points="147.78,-103.79 151.28,-113.79 154.78,-103.79 147.78,-103.79"/>
</g>
</g>
</svg>
